<svg width="201" height="50" viewBox="0 0 201 50" fill="none" xmlns="http://www.w3.org/2000/svg">
<path d="M2.92683 2.58537H0.951219V0.609755H2.92683V2.58537ZM2.92683 4.56098H0.951219V2.58537H2.92683V4.56098ZM2.92683 6.53659H0.951219V4.56098H2.92683V6.53659ZM2.92683 8.5122H0.951219V6.53659H2.92683V8.5122ZM2.92683 10.4878H0.951219V8.5122H2.92683V10.4878ZM2.92683 12.4634H0.951219V10.4878H2.92683V12.4634ZM2.92683 14.439H0.951219V12.4634H2.92683V14.439ZM2.92683 16.4146H0.951219V14.439H2.92683V16.4146ZM2.92683 18.3902H0.951219V16.4146H2.92683V18.3902ZM2.92683 20.3659H0.951219V18.3902H2.92683V20.3659ZM2.92683 22.3415H0.951219V20.3659H2.92683V22.3415ZM2.92683 24.3171H0.951219V22.3415H2.92683V24.3171ZM2.92683 26.2927H0.951219V24.3171H2.92683V26.2927ZM2.92683 28.2683H0.951219V26.2927H2.92683V28.2683ZM2.92683 30.2439H0.951219V28.2683H2.92683V30.2439ZM4.90244 30.2439H2.92683V28.2683H4.90244V30.2439ZM4.90244 28.2683H2.92683V26.2927H4.90244V28.2683ZM4.90244 26.2927H2.92683V24.3171H4.90244V26.2927ZM4.90244 24.3171H2.92683V22.3415H4.90244V24.3171ZM4.90244 22.3415H2.92683V20.3659H4.90244V22.3415ZM4.90244 20.3659H2.92683V18.3902H4.90244V20.3659ZM4.90244 18.3902H2.92683V16.4146H4.90244V18.3902ZM6.87805 16.4146H4.90244V14.439H6.87805V16.4146ZM6.87805 14.439H4.90244V12.4634H6.87805V14.439ZM6.87805 12.4634H4.90244V10.4878H6.87805V12.4634ZM6.87805 10.4878H4.90244V8.5122H6.87805V10.4878ZM6.87805 8.5122H4.90244V6.53659H6.87805V8.5122ZM6.87805 6.53659H4.90244V4.56098H6.87805V6.53659ZM6.87805 4.56098H4.90244V2.58537H6.87805V4.56098ZM6.87805 2.58537H4.90244V0.609755H6.87805V2.58537ZM8.85366 2.58537H6.87805V0.609755H8.85366V2.58537ZM10.8293 2.58537H8.85366V0.609755H10.8293V2.58537ZM10.8293 4.56098H8.85366V2.58537H10.8293V4.56098ZM10.8293 6.53659H8.85366V4.56098H10.8293V6.53659ZM10.8293 8.5122H8.85366V6.53659H10.8293V8.5122ZM10.8293 10.4878H8.85366V8.5122H10.8293V10.4878ZM10.8293 12.4634H8.85366V10.4878H10.8293V12.4634ZM10.8293 14.439H8.85366V12.4634H10.8293V14.439ZM10.8293 16.4146H8.85366V14.439H10.8293V16.4146ZM8.85366 16.4146H6.87805V14.439H8.85366V16.4146ZM8.85366 18.3902H6.87805V16.4146H8.85366V18.3902ZM8.85366 14.439H6.87805V12.4634H8.85366V14.439ZM8.85366 12.4634H6.87805V10.4878H8.85366V12.4634ZM8.85366 10.4878H6.87805V8.5122H8.85366V10.4878ZM8.85366 8.5122H6.87805V6.53659H8.85366V8.5122ZM8.85366 6.53659H6.87805V4.56098H8.85366V6.53659ZM8.85366 4.56098H6.87805V2.58537H8.85366V4.56098ZM4.90244 2.58537H2.92683V0.609755H4.90244V2.58537ZM4.90244 4.56098H2.92683V2.58537H4.90244V4.56098ZM4.90244 6.53659H2.92683V4.56098H4.90244V6.53659ZM4.90244 8.5122H2.92683V6.53659H4.90244V8.5122ZM4.90244 10.4878H2.92683V8.5122H4.90244V10.4878ZM4.90244 12.4634H2.92683V10.4878H4.90244V12.4634ZM4.90244 14.439H2.92683V12.4634H4.90244V14.439ZM4.90244 16.4146H2.92683V14.439H4.90244V16.4146ZM2.92683 36.1707H0.951219V34.1951H2.92683V36.1707ZM2.92683 34.1951H0.951219V32.2195H2.92683V34.1951ZM2.92683 32.2195H0.951219V30.2439H2.92683V32.2195ZM8.85366 40.122H6.87805V38.1463H8.85366V40.122ZM8.85366 36.1707H6.87805V34.1951H8.85366V36.1707ZM8.85366 34.1951H6.87805V32.2195H8.85366V34.1951ZM8.85366 32.2195H6.87805V30.2439H8.85366V32.2195ZM8.85366 30.2439H6.87805V28.2683H8.85366V30.2439ZM8.85366 28.2683H6.87805V26.2927H8.85366V28.2683ZM8.85366 26.2927H6.87805V24.3171H8.85366V26.2927ZM8.85366 24.3171H6.87805V22.3415H8.85366V24.3171ZM10.8293 22.3415H8.85366V20.3659H10.8293V22.3415ZM10.8293 20.3659H8.85366V18.3902H10.8293V20.3659ZM10.8293 18.3902H8.85366V16.4146H10.8293V18.3902ZM10.8293 24.3171H8.85366V22.3415H10.8293V24.3171ZM10.8293 26.2927H8.85366V24.3171H10.8293V26.2927ZM10.8293 28.2683H8.85366V26.2927H10.8293V28.2683ZM10.8293 30.2439H8.85366V28.2683H10.8293V30.2439ZM10.8293 32.2195H8.85366V30.2439H10.8293V32.2195ZM10.8293 34.1951H8.85366V32.2195H10.8293V34.1951ZM10.8293 36.1707H8.85366V34.1951H10.8293V36.1707ZM10.8293 38.1463H8.85366V36.1707H10.8293V38.1463ZM10.8293 40.122H8.85366V38.1463H10.8293V40.122ZM10.8293 42.0976H8.85366V40.122H10.8293V42.0976ZM8.85366 38.1463H6.87805V36.1707H8.85366V38.1463ZM10.8293 44.0732H8.85366V42.0976H10.8293V44.0732ZM10.8293 46.0488H8.85366V44.0732H10.8293V46.0488ZM6.87805 40.122H4.90244V38.1463H6.87805V40.122ZM6.87805 38.1463H4.90244V36.1707H6.87805V38.1463ZM6.87805 36.1707H4.90244V34.1951H6.87805V36.1707ZM4.90244 34.1951H2.92683V32.2195H4.90244V34.1951ZM4.90244 32.2195H2.92683V30.2439H4.90244V32.2195ZM4.90244 36.1707H2.92683V34.1951H4.90244V36.1707ZM4.90244 38.1463H2.92683V36.1707H4.90244V38.1463ZM6.87805 34.1951H4.90244V32.2195H6.87805V34.1951ZM6.87805 32.2195H4.90244V30.2439H6.87805V32.2195ZM6.87805 30.2439H4.90244V28.2683H6.87805V30.2439ZM6.87805 28.2683H4.90244V26.2927H6.87805V28.2683ZM6.87805 26.2927H4.90244V24.3171H6.87805V26.2927ZM6.87805 24.3171H4.90244V22.3415H6.87805V24.3171ZM6.87805 22.3415H4.90244V20.3659H6.87805V22.3415ZM6.87805 20.3659H4.90244V18.3902H6.87805V20.3659ZM6.87805 18.3902H4.90244V16.4146H6.87805V18.3902ZM8.85366 20.3659H6.87805V18.3902H8.85366V20.3659ZM8.85366 22.3415H6.87805V20.3659H8.85366V22.3415ZM22.6829 46.0488H20.7073V44.0732H22.6829V46.0488ZM22.6829 44.0732H20.7073V42.0976H22.6829V44.0732ZM22.6829 42.0976H20.7073V40.122H22.6829V42.0976ZM22.6829 40.122H20.7073V38.1463H22.6829V40.122ZM24.6585 42.0976H22.6829V40.122H24.6585V42.0976ZM24.6585 44.0732H22.6829V42.0976H24.6585V44.0732ZM14.7805 50H12.8049V48.0244H14.7805V50ZM16.7561 50H14.7805V48.0244H16.7561V50ZM18.7317 50H16.7561V48.0244H18.7317V50ZM20.7073 48.0244H18.7317V46.0488H20.7073V48.0244ZM18.7317 48.0244H16.7561V46.0488H18.7317V48.0244ZM16.7561 48.0244H14.7805V46.0488H16.7561V48.0244ZM14.7805 48.0244H12.8049V46.0488H14.7805V48.0244ZM12.8049 48.0244H10.8293V46.0488H12.8049V48.0244ZM12.8049 46.0488H10.8293V44.0732H12.8049V46.0488ZM12.8049 44.0732H10.8293V42.0976H12.8049V44.0732ZM14.7805 46.0488H12.8049V44.0732H14.7805V46.0488ZM16.7561 46.0488H14.7805V44.0732H16.7561V46.0488ZM18.7317 46.0488H16.7561V44.0732H18.7317V46.0488ZM20.7073 46.0488H18.7317V44.0732H20.7073V46.0488ZM20.7073 44.0732H18.7317V42.0976H20.7073V44.0732ZM18.7317 44.0732H16.7561V42.0976H18.7317V44.0732ZM16.7561 44.0732H14.7805V42.0976H16.7561V44.0732ZM14.7805 44.0732H12.8049V42.0976H14.7805V44.0732ZM12.8049 42.0976H10.8293V40.122H12.8049V42.0976ZM14.7805 42.0976H12.8049V40.122H14.7805V42.0976ZM20.7073 42.0976H18.7317V40.122H20.7073V42.0976ZM18.7317 42.0976H16.7561V40.122H18.7317V42.0976ZM20.7073 40.122H18.7317V38.1463H20.7073V40.122ZM12.8049 40.122H10.8293V38.1463H12.8049V40.122ZM8.85366 44.0732H6.87805V42.0976H8.85366V44.0732ZM8.85366 42.0976H6.87805V40.122H8.85366V42.0976ZM6.87805 42.0976H4.90244V40.122H6.87805V42.0976ZM4.90244 40.122H2.92683V38.1463H4.90244V40.122ZM2.92683 38.1463H0.951219V36.1707H2.92683V38.1463ZM12.8049 38.1463H10.8293V36.1707H12.8049V38.1463ZM14.7805 40.122H12.8049V38.1463H14.7805V40.122ZM16.7561 42.0976H14.7805V40.122H16.7561V42.0976ZM18.7317 40.122H16.7561V38.1463H18.7317V40.122ZM20.7073 38.1463H18.7317V36.1707H20.7073V38.1463ZM16.7561 40.122H14.7805V38.1463H16.7561V40.122ZM14.7805 38.1463H12.8049V36.1707H14.7805V38.1463ZM12.8049 36.1707H10.8293V34.1951H12.8049V36.1707ZM18.7317 38.1463H16.7561V36.1707H18.7317V38.1463ZM20.7073 36.1707H18.7317V34.1951H20.7073V36.1707ZM22.6829 2.58537H20.7073V0.609755H22.6829V2.58537ZM22.6829 4.56098H20.7073V2.58537H22.6829V4.56098ZM22.6829 6.53659H20.7073V4.56098H22.6829V6.53659ZM22.6829 8.5122H20.7073V6.53659H22.6829V8.5122ZM22.6829 10.4878H20.7073V8.5122H22.6829V10.4878ZM22.6829 14.439H20.7073V12.4634H22.6829V14.439ZM22.6829 16.4146H20.7073V14.439H22.6829V16.4146ZM22.6829 18.3902H20.7073V16.4146H22.6829V18.3902ZM22.6829 20.3659H20.7073V18.3902H22.6829V20.3659ZM22.6829 22.3415H20.7073V20.3659H22.6829V22.3415ZM22.6829 24.3171H20.7073V22.3415H22.6829V24.3171ZM22.6829 26.2927H20.7073V24.3171H22.6829V26.2927ZM22.6829 28.2683H20.7073V26.2927H22.6829V28.2683ZM22.6829 30.2439H20.7073V28.2683H22.6829V30.2439ZM24.6585 30.2439H22.6829V28.2683H24.6585V30.2439ZM24.6585 28.2683H22.6829V26.2927H24.6585V28.2683ZM24.6585 26.2927H22.6829V24.3171H24.6585V26.2927ZM24.6585 22.3415H22.6829V20.3659H24.6585V22.3415ZM24.6585 20.3659H22.6829V18.3902H24.6585V20.3659ZM24.6585 18.3902H22.6829V16.4146H24.6585V18.3902ZM26.6341 14.439H24.6585V12.4634H26.6341V14.439ZM26.6341 12.4634H24.6585V10.4878H26.6341V12.4634ZM26.6341 10.4878H24.6585V8.5122H26.6341V10.4878ZM26.6341 8.5122H24.6585V6.53659H26.6341V8.5122ZM26.6341 6.53659H24.6585V4.56098H26.6341V6.53659ZM26.6341 4.56098H24.6585V2.58537H26.6341V4.56098ZM26.6341 2.58537H24.6585V0.609755H26.6341V2.58537ZM30.5854 2.58537H28.6098V0.609755H30.5854V2.58537ZM30.5854 4.56098H28.6098V2.58537H30.5854V4.56098ZM30.5854 6.53659H28.6098V4.56098H30.5854V6.53659ZM30.5854 10.4878H28.6098V8.5122H30.5854V10.4878ZM30.5854 12.4634H28.6098V10.4878H30.5854V12.4634ZM30.5854 16.4146H28.6098V14.439H30.5854V16.4146ZM28.6098 16.4146H26.6341V14.439H28.6098V16.4146ZM28.6098 18.3902H26.6341V16.4146H28.6098V18.3902ZM28.6098 14.439H26.6341V12.4634H28.6098V14.439ZM28.6098 12.4634H26.6341V10.4878H28.6098V12.4634ZM28.6098 10.4878H26.6341V8.5122H28.6098V10.4878ZM28.6098 8.5122H26.6341V6.53659H28.6098V8.5122ZM28.6098 6.53659H26.6341V4.56098H28.6098V6.53659ZM28.6098 4.56098H26.6341V2.58537H28.6098V4.56098ZM24.6585 2.58537H22.6829V0.609755H24.6585V2.58537ZM24.6585 6.53659H22.6829V4.56098H24.6585V6.53659ZM24.6585 8.5122H22.6829V6.53659H24.6585V8.5122ZM24.6585 10.4878H22.6829V8.5122H24.6585V10.4878ZM24.6585 12.4634H22.6829V10.4878H24.6585V12.4634ZM24.6585 14.439H22.6829V12.4634H24.6585V14.439ZM22.6829 36.1707H20.7073V34.1951H22.6829V36.1707ZM22.6829 32.2195H20.7073V30.2439H22.6829V32.2195ZM28.6098 40.122H26.6341V38.1463H28.6098V40.122ZM28.6098 36.1707H26.6341V34.1951H28.6098V36.1707ZM28.6098 34.1951H26.6341V32.2195H28.6098V34.1951ZM28.6098 32.2195H26.6341V30.2439H28.6098V32.2195ZM28.6098 30.2439H26.6341V28.2683H28.6098V30.2439ZM28.6098 28.2683H26.6341V26.2927H28.6098V28.2683ZM28.6098 26.2927H26.6341V24.3171H28.6098V26.2927ZM28.6098 24.3171H26.6341V22.3415H28.6098V24.3171ZM30.5854 22.3415H28.6098V20.3659H30.5854V22.3415ZM30.5854 20.3659H28.6098V18.3902H30.5854V20.3659ZM30.5854 18.3902H28.6098V16.4146H30.5854V18.3902ZM30.5854 24.3171H28.6098V22.3415H30.5854V24.3171ZM30.5854 26.2927H28.6098V24.3171H30.5854V26.2927ZM30.5854 28.2683H28.6098V26.2927H30.5854V28.2683ZM30.5854 30.2439H28.6098V28.2683H30.5854V30.2439ZM30.5854 32.2195H28.6098V30.2439H30.5854V32.2195ZM30.5854 34.1951H28.6098V32.2195H30.5854V34.1951ZM30.5854 36.1707H28.6098V34.1951H30.5854V36.1707ZM30.5854 38.1463H28.6098V36.1707H30.5854V38.1463ZM30.5854 40.122H28.6098V38.1463H30.5854V40.122ZM30.5854 42.0976H28.6098V40.122H30.5854V42.0976ZM28.6098 38.1463H26.6341V36.1707H28.6098V38.1463ZM30.5854 44.0732H28.6098V42.0976H30.5854V44.0732ZM30.5854 46.0488H28.6098V44.0732H30.5854V46.0488ZM26.6341 40.122H24.6585V38.1463H26.6341V40.122ZM26.6341 38.1463H24.6585V36.1707H26.6341V38.1463ZM26.6341 36.1707H24.6585V34.1951H26.6341V36.1707ZM24.6585 34.1951H22.6829V32.2195H24.6585V34.1951ZM24.6585 32.2195H22.6829V30.2439H24.6585V32.2195ZM24.6585 36.1707H22.6829V34.1951H24.6585V36.1707ZM24.6585 38.1463H22.6829V36.1707H24.6585V38.1463ZM26.6341 34.1951H24.6585V32.2195H26.6341V34.1951ZM26.6341 32.2195H24.6585V30.2439H26.6341V32.2195ZM26.6341 26.2927H24.6585V24.3171H26.6341V26.2927ZM26.6341 24.3171H24.6585V22.3415H26.6341V24.3171ZM26.6341 22.3415H24.6585V20.3659H26.6341V22.3415ZM26.6341 20.3659H24.6585V18.3902H26.6341V20.3659ZM26.6341 18.3902H24.6585V16.4146H26.6341V18.3902ZM28.6098 20.3659H26.6341V18.3902H28.6098V20.3659ZM28.6098 22.3415H26.6341V20.3659H28.6098V22.3415ZM42.439 2.58537H40.4634V0.609755H42.439V2.58537ZM42.439 4.56098H40.4634V2.58537H42.439V4.56098ZM42.439 6.53659H40.4634V4.56098H42.439V6.53659ZM42.439 8.5122H40.4634V6.53659H42.439V8.5122ZM42.439 10.4878H40.4634V8.5122H42.439V10.4878ZM42.439 12.4634H40.4634V10.4878H42.439V12.4634ZM42.439 14.439H40.4634V12.4634H42.439V14.439ZM42.439 16.4146H40.4634V14.439H42.439V16.4146ZM42.439 18.3902H40.4634V16.4146H42.439V18.3902ZM42.439 20.3659H40.4634V18.3902H42.439V20.3659ZM42.439 22.3415H40.4634V20.3659H42.439V22.3415ZM42.439 24.3171H40.4634V22.3415H42.439V24.3171ZM42.439 26.2927H40.4634V24.3171H42.439V26.2927ZM42.439 28.2683H40.4634V26.2927H42.439V28.2683ZM42.439 30.2439H40.4634V28.2683H42.439V30.2439ZM44.4146 30.2439H42.439V28.2683H44.4146V30.2439ZM44.4146 28.2683H42.439V26.2927H44.4146V28.2683ZM44.4146 26.2927H42.439V24.3171H44.4146V26.2927ZM44.4146 24.3171H42.439V22.3415H44.4146V24.3171ZM44.4146 22.3415H42.439V20.3659H44.4146V22.3415ZM44.4146 20.3659H42.439V18.3902H44.4146V20.3659ZM44.4146 18.3902H42.439V16.4146H44.4146V18.3902ZM46.3902 16.4146H44.4146V14.439H46.3902V16.4146ZM46.3902 14.439H44.4146V12.4634H46.3902V14.439ZM46.3902 12.4634H44.4146V10.4878H46.3902V12.4634ZM46.3902 10.4878H44.4146V8.5122H46.3902V10.4878ZM46.3902 8.5122H44.4146V6.53659H46.3902V8.5122ZM46.3902 6.53659H44.4146V4.56098H46.3902V6.53659ZM46.3902 4.56098H44.4146V2.58537H46.3902V4.56098ZM46.3902 2.58537H44.4146V0.609755H46.3902V2.58537ZM48.3659 2.58537H46.3902V0.609755H48.3659V2.58537ZM50.3415 2.58537H48.3659V0.609755H50.3415V2.58537ZM50.3415 4.56098H48.3659V2.58537H50.3415V4.56098ZM50.3415 6.53659H48.3659V4.56098H50.3415V6.53659ZM50.3415 8.5122H48.3659V6.53659H50.3415V8.5122ZM50.3415 10.4878H48.3659V8.5122H50.3415V10.4878ZM50.3415 12.4634H48.3659V10.4878H50.3415V12.4634ZM50.3415 14.439H48.3659V12.4634H50.3415V14.439ZM50.3415 16.4146H48.3659V14.439H50.3415V16.4146ZM48.3659 16.4146H46.3902V14.439H48.3659V16.4146ZM48.3659 18.3902H46.3902V16.4146H48.3659V18.3902ZM48.3659 14.439H46.3902V12.4634H48.3659V14.439ZM48.3659 12.4634H46.3902V10.4878H48.3659V12.4634ZM48.3659 10.4878H46.3902V8.5122H48.3659V10.4878ZM48.3659 8.5122H46.3902V6.53659H48.3659V8.5122ZM48.3659 6.53659H46.3902V4.56098H48.3659V6.53659ZM48.3659 4.56098H46.3902V2.58537H48.3659V4.56098ZM44.4146 2.58537H42.439V0.609755H44.4146V2.58537ZM44.4146 4.56098H42.439V2.58537H44.4146V4.56098ZM44.4146 6.53659H42.439V4.56098H44.4146V6.53659ZM44.4146 8.5122H42.439V6.53659H44.4146V8.5122ZM44.4146 10.4878H42.439V8.5122H44.4146V10.4878ZM44.4146 12.4634H42.439V10.4878H44.4146V12.4634ZM44.4146 14.439H42.439V12.4634H44.4146V14.439ZM44.4146 16.4146H42.439V14.439H44.4146V16.4146ZM42.439 46.0488H40.4634V44.0732H42.439V46.0488ZM42.439 44.0732H40.4634V42.0976H42.439V44.0732ZM42.439 42.0976H40.4634V40.122H42.439V42.0976ZM42.439 40.122H40.4634V38.1463H42.439V40.122ZM42.439 38.1463H40.4634V36.1707H42.439V38.1463ZM42.439 36.1707H40.4634V34.1951H42.439V36.1707ZM42.439 34.1951H40.4634V32.2195H42.439V34.1951ZM42.439 32.2195H40.4634V30.2439H42.439V32.2195ZM48.3659 40.122H46.3902V38.1463H48.3659V40.122ZM48.3659 36.1707H46.3902V34.1951H48.3659V36.1707ZM48.3659 34.1951H46.3902V32.2195H48.3659V34.1951ZM48.3659 32.2195H46.3902V30.2439H48.3659V32.2195ZM48.3659 30.2439H46.3902V28.2683H48.3659V30.2439ZM48.3659 28.2683H46.3902V26.2927H48.3659V28.2683ZM48.3659 26.2927H46.3902V24.3171H48.3659V26.2927ZM48.3659 24.3171H46.3902V22.3415H48.3659V24.3171ZM50.3415 22.3415H48.3659V20.3659H50.3415V22.3415ZM50.3415 20.3659H48.3659V18.3902H50.3415V20.3659ZM50.3415 18.3902H48.3659V16.4146H50.3415V18.3902ZM50.3415 24.3171H48.3659V22.3415H50.3415V24.3171ZM50.3415 26.2927H48.3659V24.3171H50.3415V26.2927ZM50.3415 28.2683H48.3659V26.2927H50.3415V28.2683ZM50.3415 30.2439H48.3659V28.2683H50.3415V30.2439ZM50.3415 32.2195H48.3659V30.2439H50.3415V32.2195ZM50.3415 34.1951H48.3659V32.2195H50.3415V34.1951ZM50.3415 36.1707H48.3659V34.1951H50.3415V36.1707ZM50.3415 38.1463H48.3659V36.1707H50.3415V38.1463ZM48.3659 38.1463H46.3902V36.1707H48.3659V38.1463ZM46.3902 42.0976H44.4146V40.122H46.3902V42.0976ZM46.3902 40.122H44.4146V38.1463H46.3902V40.122ZM46.3902 38.1463H44.4146V36.1707H46.3902V38.1463ZM46.3902 36.1707H44.4146V34.1951H46.3902V36.1707ZM44.4146 34.1951H42.439V32.2195H44.4146V34.1951ZM44.4146 32.2195H42.439V30.2439H44.4146V32.2195ZM44.4146 36.1707H42.439V34.1951H44.4146V36.1707ZM44.4146 38.1463H42.439V36.1707H44.4146V38.1463ZM44.4146 40.122H42.439V38.1463H44.4146V40.122ZM44.4146 42.0976H42.439V40.122H44.4146V42.0976ZM44.4146 44.0732H42.439V42.0976H44.4146V44.0732ZM46.3902 34.1951H44.4146V32.2195H46.3902V34.1951ZM46.3902 32.2195H44.4146V30.2439H46.3902V32.2195ZM46.3902 30.2439H44.4146V28.2683H46.3902V30.2439ZM46.3902 28.2683H44.4146V26.2927H46.3902V28.2683ZM46.3902 26.2927H44.4146V24.3171H46.3902V26.2927ZM46.3902 24.3171H44.4146V22.3415H46.3902V24.3171ZM46.3902 22.3415H44.4146V20.3659H46.3902V22.3415ZM46.3902 20.3659H44.4146V18.3902H46.3902V20.3659ZM46.3902 18.3902H44.4146V16.4146H46.3902V18.3902ZM48.3659 20.3659H46.3902V18.3902H48.3659V20.3659ZM48.3659 22.3415H46.3902V20.3659H48.3659V22.3415ZM34.5366 50H32.561V48.0244H34.5366V50ZM36.5122 50H34.5366V48.0244H36.5122V50ZM38.4878 50H36.5122V48.0244H38.4878V50ZM40.4634 48.0244H38.4878V46.0488H40.4634V48.0244ZM38.4878 48.0244H36.5122V46.0488H38.4878V48.0244ZM36.5122 48.0244H34.5366V46.0488H36.5122V48.0244ZM34.5366 48.0244H32.561V46.0488H34.5366V48.0244ZM32.561 48.0244H30.5854V46.0488H32.561V48.0244ZM32.561 46.0488H30.5854V44.0732H32.561V46.0488ZM32.561 44.0732H30.5854V42.0976H32.561V44.0732ZM34.5366 46.0488H32.561V44.0732H34.5366V46.0488ZM36.5122 46.0488H34.5366V44.0732H36.5122V46.0488ZM38.4878 46.0488H36.5122V44.0732H38.4878V46.0488ZM40.4634 46.0488H38.4878V44.0732H40.4634V46.0488ZM40.4634 44.0732H38.4878V42.0976H40.4634V44.0732ZM38.4878 44.0732H36.5122V42.0976H38.4878V44.0732ZM36.5122 44.0732H34.5366V42.0976H36.5122V44.0732ZM34.5366 44.0732H32.561V42.0976H34.5366V44.0732ZM32.561 42.0976H30.5854V40.122H32.561V42.0976ZM34.5366 42.0976H32.561V40.122H34.5366V42.0976ZM40.4634 42.0976H38.4878V40.122H40.4634V42.0976ZM38.4878 42.0976H36.5122V40.122H38.4878V42.0976ZM40.4634 40.122H38.4878V38.1463H40.4634V40.122ZM32.561 40.122H30.5854V38.1463H32.561V40.122ZM28.6098 44.0732H26.6341V42.0976H28.6098V44.0732ZM28.6098 42.0976H26.6341V40.122H28.6098V42.0976ZM26.6341 42.0976H24.6585V40.122H26.6341V42.0976ZM24.6585 40.122H22.6829V38.1463H24.6585V40.122ZM22.6829 38.1463H20.7073V36.1707H22.6829V38.1463ZM32.561 38.1463H30.5854V36.1707H32.561V38.1463ZM34.5366 40.122H32.561V38.1463H34.5366V40.122ZM36.5122 42.0976H34.5366V40.122H36.5122V42.0976ZM38.4878 40.122H36.5122V38.1463H38.4878V40.122ZM40.4634 38.1463H38.4878V36.1707H40.4634V38.1463ZM36.5122 40.122H34.5366V38.1463H36.5122V40.122ZM34.5366 38.1463H32.561V36.1707H34.5366V38.1463ZM32.561 36.1707H30.5854V34.1951H32.561V36.1707ZM38.4878 38.1463H36.5122V36.1707H38.4878V38.1463ZM40.4634 36.1707H38.4878V34.1951H40.4634V36.1707ZM22.6829 32.2195V34.1951H20.7073V32.2195H22.6829ZM26.6341 28.2683V30.2439H24.6585V28.2683H26.6341ZM26.6341 26.2927V28.2683H24.6585V26.2927H26.6341ZM24.6585 22.3415V24.3171H22.6829V22.3415H24.6585ZM28.6098 0.609755V2.58537H26.6341V0.609755H28.6098ZM24.6585 2.58537V4.56098H22.6829V2.58537H24.6585ZM30.5854 6.53659V8.5122H28.6098V6.53659H30.5854ZM22.6829 10.4878V12.4634H20.7073V10.4878H22.6829ZM30.5854 12.4634V14.439H28.6098V12.4634H30.5854ZM26.6341 14.439V16.4146H24.6585V14.439H26.6341ZM24.6585 14.439V16.4146H22.6829V14.439H24.6585ZM79.9525 24.3171V26.2927H77.9768V24.3171H79.9525ZM81.9281 24.3171V26.2927H79.9525V24.3171H81.9281ZM83.9037 24.3171V26.2927H81.9281V24.3171H83.9037ZM85.8793 24.3171V26.2927H83.9037V24.3171H85.8793ZM87.8549 24.3171V26.2927H85.8793V24.3171H87.8549ZM87.8549 22.3415V24.3171H85.8793V22.3415H87.8549ZM87.8549 20.3659V22.3415H85.8793V20.3659H87.8549ZM85.8793 20.3659V22.3415H83.9037V20.3659H85.8793ZM83.9037 20.3659V22.3415H81.9281V20.3659H83.9037ZM81.9281 20.3659V22.3415H79.9525V20.3659H81.9281ZM81.9281 22.3415V24.3171H79.9525V22.3415H81.9281ZM79.9525 22.3415V24.3171H77.9768V22.3415H79.9525ZM83.9037 22.3415V24.3171H81.9281V22.3415H83.9037ZM85.8793 22.3415V24.3171H83.9037V22.3415H85.8793ZM79.9525 20.3659V22.3415H77.9768V20.3659H79.9525ZM77.9768 20.3659V22.3415H76.0012V20.3659H77.9768ZM77.9768 18.3902V20.3659H76.0012V18.3902H77.9768ZM79.9525 18.3902V20.3659H77.9768V18.3902H79.9525ZM81.9281 18.3902V20.3659H79.9525V18.3902H81.9281ZM83.9037 18.3902V20.3659H81.9281V18.3902H83.9037ZM85.8793 18.3902V20.3659H83.9037V18.3902H85.8793ZM85.8793 16.4146V18.3902H83.9037V16.4146H85.8793ZM83.9037 16.4146V18.3902H81.9281V16.4146H83.9037ZM81.9281 16.4146V18.3902H79.9525V16.4146H81.9281ZM79.9525 16.4146V18.3902H77.9768V16.4146H79.9525ZM77.9768 16.4146V18.3902H76.0012V16.4146H77.9768ZM81.9281 14.439V16.4146H79.9525V14.439H81.9281ZM83.9037 14.439V16.4146H81.9281V14.439H83.9037ZM79.9525 14.439V16.4146H77.9768V14.439H79.9525ZM79.9525 12.4634V14.439H77.9768V12.4634H79.9525ZM77.9768 12.4634V14.439H76.0012V12.4634H77.9768ZM77.9768 14.439V16.4146H76.0012V14.439H77.9768ZM76.0012 14.439V16.4146H74.0256V14.439H76.0012ZM76.0012 12.4634V14.439H74.0256V12.4634H76.0012ZM76.0012 16.4146V18.3902H74.0256V16.4146H76.0012ZM74.0256 16.4146V18.3902H72.05V16.4146H74.0256ZM74.0256 18.3902V20.3659H72.05V18.3902H74.0256ZM76.0012 18.3902V20.3659H74.0256V18.3902H76.0012ZM72.05 18.3902V20.3659H70.0744V18.3902H72.05ZM72.05 16.4146V18.3902H70.0744V16.4146H72.05ZM72.05 14.439V16.4146H70.0744V14.439H72.05ZM72.05 12.4634V14.439H70.0744V12.4634H72.05ZM74.0256 12.4634V14.439H72.05V12.4634H74.0256ZM74.0256 14.439V16.4146H72.05V14.439H74.0256ZM70.0744 12.4634V14.439H68.0988V12.4634H70.0744ZM68.0988 12.4634V14.439H66.1232V12.4634H68.0988ZM66.1232 12.4634V14.439H64.1476V12.4634H66.1232ZM66.1232 14.439V16.4146H64.1476V14.439H66.1232ZM66.1232 16.4146V18.3902H64.1476V16.4146H66.1232ZM66.1232 18.3902V20.3659H64.1476V18.3902H66.1232ZM68.0988 18.3902V20.3659H66.1232V18.3902H68.0988ZM70.0744 18.3902V20.3659H68.0988V18.3902H70.0744ZM70.0744 16.4146V18.3902H68.0988V16.4146H70.0744ZM70.0744 14.439V16.4146H68.0988V14.439H70.0744ZM68.0988 14.439V16.4146H66.1232V14.439H68.0988ZM68.0988 16.4146V18.3902H66.1232V16.4146H68.0988ZM64.1476 16.4146V18.3902H62.172V16.4146H64.1476ZM64.1476 14.439V16.4146H62.172V14.439H64.1476ZM62.172 14.439V16.4146H60.1964V14.439H62.172ZM62.172 16.4146V18.3902H60.1964V16.4146H62.172ZM60.1964 16.4146V18.3902H58.2208V16.4146H60.1964ZM60.1964 18.3902V20.3659H58.2208V18.3902H60.1964ZM60.1964 20.3659V22.3415H58.2208V20.3659H60.1964ZM62.172 20.3659V22.3415H60.1964V20.3659H62.172ZM62.172 18.3902V20.3659H60.1964V18.3902H62.172ZM64.1476 18.3902V20.3659H62.172V18.3902H64.1476ZM64.1476 20.3659V22.3415H62.172V20.3659H64.1476ZM66.1232 20.3659V22.3415H64.1476V20.3659H66.1232ZM68.0988 20.3659V22.3415H66.1232V20.3659H68.0988ZM58.2208 20.3659V22.3415H56.2451V20.3659H58.2208ZM58.2208 22.3415V24.3171H56.2451V22.3415H58.2208ZM58.2208 24.3171V26.2927H56.2451V24.3171H58.2208ZM58.2208 26.2927V28.2683H56.2451V26.2927H58.2208ZM58.2208 28.2683V30.2439H56.2451V28.2683H58.2208ZM58.2208 30.2439V32.2195H56.2451V30.2439H58.2208ZM58.2208 32.2195V34.1951H56.2451V32.2195H58.2208ZM58.2208 34.1951V36.1707H56.2451V34.1951H58.2208ZM58.2208 36.1707V38.1463H56.2451V36.1707H58.2208ZM58.2208 38.1463V40.122H56.2451V38.1463H58.2208ZM60.1964 38.1463V40.122H58.2208V38.1463H60.1964ZM60.1964 40.122V42.0976H58.2208V40.122H60.1964ZM58.2208 40.122V42.0976H56.2451V40.122H58.2208ZM62.172 40.122V42.0976H60.1964V40.122H62.172ZM64.1476 40.122V42.0976H62.172V40.122H64.1476ZM66.1232 40.122V42.0976H64.1476V40.122H66.1232ZM68.0988 40.122V42.0976H66.1232V40.122H68.0988ZM66.1232 38.1463V40.122H64.1476V38.1463H66.1232ZM66.1232 36.1707V38.1463H64.1476V36.1707H66.1232ZM66.1232 34.1951V36.1707H64.1476V34.1951H66.1232ZM66.1232 32.2195V34.1951H64.1476V32.2195H66.1232ZM66.1232 30.2439V32.2195H64.1476V30.2439H66.1232ZM66.1232 28.2683V30.2439H64.1476V28.2683H66.1232ZM66.1232 26.2927V28.2683H64.1476V26.2927H66.1232ZM66.1232 24.3171V26.2927H64.1476V24.3171H66.1232ZM66.1232 22.3415V24.3171H64.1476V22.3415H66.1232ZM64.1476 22.3415V24.3171H62.172V22.3415H64.1476ZM62.172 22.3415V24.3171H60.1964V22.3415H62.172ZM60.1964 22.3415V24.3171H58.2208V22.3415H60.1964ZM60.1964 24.3171V26.2927H58.2208V24.3171H60.1964ZM60.1964 26.2927V28.2683H58.2208V26.2927H60.1964ZM60.1964 28.2683V30.2439H58.2208V28.2683H60.1964ZM60.1964 30.2439V32.2195H58.2208V30.2439H60.1964ZM60.1964 32.2195V34.1951H58.2208V32.2195H60.1964ZM60.1964 34.1951V36.1707H58.2208V34.1951H60.1964ZM60.1964 36.1707V38.1463H58.2208V36.1707H60.1964ZM62.172 38.1463V40.122H60.1964V38.1463H62.172ZM64.1476 38.1463V40.122H62.172V38.1463H64.1476ZM64.1476 36.1707V38.1463H62.172V36.1707H64.1476ZM64.1476 34.1951V36.1707H62.172V34.1951H64.1476ZM64.1476 32.2195V34.1951H62.172V32.2195H64.1476ZM64.1476 30.2439V32.2195H62.172V30.2439H64.1476ZM62.172 30.2439V32.2195H60.1964V30.2439H62.172ZM62.172 28.2683V30.2439H60.1964V28.2683H62.172ZM62.172 26.2927V28.2683H60.1964V26.2927H62.172ZM62.172 24.3171V26.2927H60.1964V24.3171H62.172ZM64.1476 24.3171V26.2927H62.172V24.3171H64.1476ZM64.1476 26.2927V28.2683H62.172V26.2927H64.1476ZM64.1476 28.2683V30.2439H62.172V28.2683H64.1476ZM62.172 34.1951V36.1707H60.1964V34.1951H62.172ZM62.172 36.1707V38.1463H60.1964V36.1707H62.172ZM62.172 32.2195V34.1951H60.1964V32.2195H62.172ZM79.9525 36.1707V38.1463H77.9768V36.1707H79.9525ZM79.9525 38.1463V40.122H77.9768V38.1463H79.9525ZM81.9281 38.1463V40.122H79.9525V38.1463H81.9281ZM83.9037 38.1463V40.122H81.9281V38.1463H83.9037ZM85.8793 38.1463V40.122H83.9037V38.1463H85.8793ZM87.8549 38.1463V40.122H85.8793V38.1463H87.8549ZM87.8549 36.1707V38.1463H85.8793V36.1707H87.8549ZM85.8793 36.1707V38.1463H83.9037V36.1707H85.8793ZM83.9037 36.1707V38.1463H81.9281V36.1707H83.9037ZM81.9281 36.1707V38.1463H79.9525V36.1707H81.9281ZM87.8549 40.122V42.0976H85.8793V40.122H87.8549ZM85.8793 40.122V42.0976H83.9037V40.122H85.8793ZM83.9037 40.122V42.0976H81.9281V40.122H83.9037ZM81.9281 40.122V42.0976H79.9525V40.122H81.9281ZM79.9525 40.122V42.0976H77.9768V40.122H79.9525ZM77.9768 40.122V42.0976H76.0012V40.122H77.9768ZM77.9768 42.0976V44.0732H76.0012V42.0976H77.9768ZM79.9525 42.0976V44.0732H77.9768V42.0976H79.9525ZM81.9281 42.0976V44.0732H79.9525V42.0976H81.9281ZM83.9037 42.0976V44.0732H81.9281V42.0976H83.9037ZM83.9037 44.0732V46.0488H81.9281V44.0732H83.9037ZM85.8793 44.0732V46.0488H83.9037V44.0732H85.8793ZM85.8793 42.0976V44.0732H83.9037V42.0976H85.8793ZM83.9037 46.0488V48.0244H81.9281V46.0488H83.9037ZM81.9281 46.0488V48.0244H79.9525V46.0488H81.9281ZM81.9281 44.0732V46.0488H79.9525V44.0732H81.9281ZM79.9525 44.0732V46.0488H77.9768V44.0732H79.9525ZM79.9525 46.0488V48.0244H77.9768V46.0488H79.9525ZM79.9525 48.0244V50H77.9768V48.0244H79.9525ZM77.9768 48.0244V50H76.0012V48.0244H77.9768ZM76.0012 48.0244V50H74.0256V48.0244H76.0012ZM74.0256 48.0244V50H72.05V48.0244H74.0256ZM72.05 48.0244V50H70.0744V48.0244H72.05ZM70.0744 48.0244V50H68.0988V48.0244H70.0744ZM68.0988 48.0244V50H66.1232V48.0244H68.0988ZM66.1232 48.0244V50H64.1476V48.0244H66.1232ZM68.0988 46.0488V48.0244H66.1232V46.0488H68.0988ZM70.0744 46.0488V48.0244H68.0988V46.0488H70.0744ZM72.05 46.0488V48.0244H70.0744V46.0488H72.05ZM74.0256 46.0488V48.0244H72.05V46.0488H74.0256ZM76.0012 46.0488V48.0244H74.0256V46.0488H76.0012ZM77.9768 46.0488V48.0244H76.0012V46.0488H77.9768ZM77.9768 44.0732V46.0488H76.0012V44.0732H77.9768ZM76.0012 44.0732V46.0488H74.0256V44.0732H76.0012ZM74.0256 44.0732V46.0488H72.05V44.0732H74.0256ZM72.05 44.0732V46.0488H70.0744V44.0732H72.05ZM70.0744 44.0732V46.0488H68.0988V44.0732H70.0744ZM68.0988 44.0732V46.0488H66.1232V44.0732H68.0988ZM66.1232 46.0488V48.0244H64.1476V46.0488H66.1232ZM64.1476 46.0488V48.0244H62.172V46.0488H64.1476ZM62.172 46.0488V48.0244H60.1964V46.0488H62.172ZM62.172 44.0732V46.0488H60.1964V44.0732H62.172ZM60.1964 44.0732V46.0488H58.2208V44.0732H60.1964ZM60.1964 42.0976V44.0732H58.2208V42.0976H60.1964ZM62.172 42.0976V44.0732H60.1964V42.0976H62.172ZM64.1476 42.0976V44.0732H62.172V42.0976H64.1476ZM66.1232 42.0976V44.0732H64.1476V42.0976H66.1232ZM68.0988 42.0976V44.0732H66.1232V42.0976H68.0988ZM70.0744 42.0976V44.0732H68.0988V42.0976H70.0744ZM72.05 42.0976V44.0732H70.0744V42.0976H72.05ZM74.0256 42.0976V44.0732H72.05V42.0976H74.0256ZM76.0012 42.0976V44.0732H74.0256V42.0976H76.0012ZM66.1232 44.0732V46.0488H64.1476V44.0732H66.1232ZM64.1476 44.0732V46.0488H62.172V44.0732H64.1476ZM79.9525 26.2927V28.2683H77.9768V26.2927H79.9525ZM79.9525 28.2683V30.2439H77.9768V28.2683H79.9525ZM81.9281 28.2683V30.2439H79.9525V28.2683H81.9281ZM83.9037 28.2683V30.2439H81.9281V28.2683H83.9037ZM85.8793 28.2683V30.2439H83.9037V28.2683H85.8793ZM87.8549 28.2683V30.2439H85.8793V28.2683H87.8549ZM87.8549 26.2927V28.2683H85.8793V26.2927H87.8549ZM85.8793 26.2927V28.2683H83.9037V26.2927H85.8793ZM83.9037 26.2927V28.2683H81.9281V26.2927H83.9037ZM81.9281 26.2927V28.2683H79.9525V26.2927H81.9281ZM81.9281 30.2439V32.2195H79.9525V30.2439H81.9281ZM83.9037 30.2439V32.2195H81.9281V30.2439H83.9037ZM83.9037 32.2195V34.1951H81.9281V32.2195H83.9037ZM85.8793 32.2195V34.1951H83.9037V32.2195H85.8793ZM85.8793 30.2439V32.2195H83.9037V30.2439H85.8793ZM87.8549 30.2439V32.2195H85.8793V30.2439H87.8549ZM87.8549 32.2195V34.1951H85.8793V32.2195H87.8549ZM87.8549 34.1951V36.1707H85.8793V34.1951H87.8549ZM85.8793 34.1951V36.1707H83.9037V34.1951H85.8793ZM83.9037 34.1951V36.1707H81.9281V34.1951H83.9037ZM81.9281 34.1951V36.1707H79.9525V34.1951H81.9281ZM81.9281 32.2195V34.1951H79.9525V32.2195H81.9281ZM79.9525 32.2195V34.1951H77.9768V32.2195H79.9525ZM79.9525 30.2439V32.2195H77.9768V30.2439H79.9525ZM79.9525 34.1951V36.1707H77.9768V34.1951H79.9525ZM95.7921 12.4634V14.439H93.8165V12.4634H95.7921ZM97.7677 12.4634V14.439H95.7921V12.4634H97.7677ZM99.7433 12.4634V14.439H97.7677V12.4634H99.7433ZM101.719 12.4634V14.439H99.7433V12.4634H101.719ZM101.719 14.439V16.4146H99.7433V14.439H101.719ZM103.695 14.439V16.4146H101.719V14.439H103.695ZM103.695 16.4146V18.3902H101.719V16.4146H103.695ZM103.695 12.4634V14.439H101.719V12.4634H103.695ZM103.695 18.3902V20.3659H101.719V18.3902H103.695ZM103.695 20.3659V22.3415H101.719V20.3659H103.695ZM103.695 22.3415V24.3171H101.719V22.3415H103.695ZM103.695 24.3171V26.2927H101.719V24.3171H103.695ZM103.695 26.2927V28.2683H101.719V26.2927H103.695ZM103.695 28.2683V30.2439H101.719V28.2683H103.695ZM103.695 30.2439V32.2195H101.719V30.2439H103.695ZM103.695 32.2195V34.1951H101.719V32.2195H103.695ZM103.695 34.1951V36.1707H101.719V34.1951H103.695ZM101.719 34.1951V36.1707H99.7433V34.1951H101.719ZM99.7433 36.1707V38.1463H97.7677V36.1707H99.7433ZM97.7677 36.1707V38.1463H95.7921V36.1707H97.7677ZM95.7921 36.1707V38.1463H93.8165V36.1707H95.7921ZM95.7921 34.1951V36.1707H93.8165V34.1951H95.7921ZM95.7921 32.2195V34.1951H93.8165V32.2195H95.7921ZM95.7921 30.2439V32.2195H93.8165V30.2439H95.7921ZM95.7921 28.2683V30.2439H93.8165V28.2683H95.7921ZM97.7677 28.2683V30.2439H95.7921V28.2683H97.7677ZM97.7677 26.2927V28.2683H95.7921V26.2927H97.7677ZM97.7677 24.3171V26.2927H95.7921V24.3171H97.7677ZM97.7677 22.3415V24.3171H95.7921V22.3415H97.7677ZM97.7677 20.3659V22.3415H95.7921V20.3659H97.7677ZM97.7677 18.3902V20.3659H95.7921V18.3902H97.7677ZM97.7677 16.4146V18.3902H95.7921V16.4146H97.7677ZM97.7677 14.439V16.4146H95.7921V14.439H97.7677ZM95.7921 14.439V16.4146H93.8165V14.439H95.7921ZM95.7921 16.4146V18.3902H93.8165V16.4146H95.7921ZM95.7921 18.3902V20.3659H93.8165V18.3902H95.7921ZM95.7921 20.3659V22.3415H93.8165V20.3659H95.7921ZM95.7921 22.3415V24.3171H93.8165V22.3415H95.7921ZM95.7921 24.3171V26.2927H93.8165V24.3171H95.7921ZM95.7921 26.2927V28.2683H93.8165V26.2927H95.7921ZM99.7433 22.3415V24.3171H97.7677V22.3415H99.7433ZM99.7433 20.3659V22.3415H97.7677V20.3659H99.7433ZM99.7433 18.3902V20.3659H97.7677V18.3902H99.7433ZM99.7433 16.4146V18.3902H97.7677V16.4146H99.7433ZM99.7433 14.439V16.4146H97.7677V14.439H99.7433ZM101.719 22.3415V24.3171H99.7433V22.3415H101.719ZM101.719 24.3171V26.2927H99.7433V24.3171H101.719ZM101.719 20.3659V22.3415H99.7433V20.3659H101.719ZM101.719 18.3902V20.3659H99.7433V18.3902H101.719ZM101.719 16.4146V18.3902H99.7433V16.4146H101.719ZM99.7433 28.2683V30.2439H97.7677V28.2683H99.7433ZM99.7433 26.2927V28.2683H97.7677V26.2927H99.7433ZM99.7433 24.3171V26.2927H97.7677V24.3171H99.7433ZM101.719 26.2927V28.2683H99.7433V26.2927H101.719ZM101.719 28.2683V30.2439H99.7433V28.2683H101.719ZM101.719 30.2439V32.2195H99.7433V30.2439H101.719ZM99.7433 32.2195V34.1951H97.7677V32.2195H99.7433ZM99.7433 34.1951V36.1707H97.7677V34.1951H99.7433ZM99.7433 30.2439V32.2195H97.7677V30.2439H99.7433ZM97.7677 30.2439V32.2195H95.7921V30.2439H97.7677ZM97.7677 32.2195V34.1951H95.7921V32.2195H97.7677ZM97.7677 34.1951V36.1707H95.7921V34.1951H97.7677ZM101.719 32.2195V34.1951H99.7433V32.2195H101.719ZM99.7433 38.1463V40.122H97.7677V38.1463H99.7433ZM97.7677 38.1463V40.122H95.7921V38.1463H97.7677ZM101.719 38.1463V40.122H99.7433V38.1463H101.719ZM101.719 36.1707V38.1463H99.7433V36.1707H101.719ZM103.695 36.1707V38.1463H101.719V36.1707H103.695ZM105.67 36.1707V38.1463H103.695V36.1707H105.67ZM105.67 38.1463V40.122H103.695V38.1463H105.67ZM103.695 38.1463V40.122H101.719V38.1463H103.695ZM107.646 38.1463V40.122H105.67V38.1463H107.646ZM99.7433 40.122V42.0976H97.7677V40.122H99.7433ZM101.719 40.122V42.0976H99.7433V40.122H101.719ZM103.695 40.122V42.0976H101.719V40.122H103.695ZM105.67 40.122V42.0976H103.695V40.122H105.67ZM107.646 40.122V42.0976H105.67V40.122H107.646ZM109.621 40.122V42.0976H107.646V40.122H109.621ZM111.597 40.122V42.0976H109.621V40.122H111.597ZM113.573 40.122V42.0976H111.597V40.122H113.573ZM115.548 40.122V42.0976H113.573V40.122H115.548ZM117.524 40.122V42.0976H115.548V40.122H117.524ZM119.499 40.122V42.0976H117.524V40.122H119.499ZM121.475 40.122V42.0976H119.499V40.122H121.475ZM119.499 38.1463V40.122H117.524V38.1463H119.499ZM117.524 38.1463V40.122H115.548V38.1463H117.524ZM115.548 38.1463V40.122H113.573V38.1463H115.548ZM113.573 38.1463V40.122H111.597V38.1463H113.573ZM115.548 36.1707V38.1463H113.573V36.1707H115.548ZM117.524 36.1707V38.1463H115.548V36.1707H117.524ZM119.499 36.1707V38.1463H117.524V36.1707H119.499ZM121.475 36.1707V38.1463H119.499V36.1707H121.475ZM123.451 36.1707V38.1463H121.475V36.1707H123.451ZM123.451 38.1463V40.122H121.475V38.1463H123.451ZM121.475 38.1463V40.122H119.499V38.1463H121.475ZM125.426 36.1707V38.1463H123.451V36.1707H125.426ZM107.646 48.0244V50H105.67V48.0244H107.646ZM107.646 46.0488V48.0244H105.67V46.0488H107.646ZM107.646 44.0732V46.0488H105.67V44.0732H107.646ZM109.621 44.0732V46.0488H107.646V44.0732H109.621ZM109.621 42.0976V44.0732H107.646V42.0976H109.621ZM111.597 42.0976V44.0732H109.621V42.0976H111.597ZM113.573 42.0976V44.0732H111.597V42.0976H113.573ZM113.573 44.0732V46.0488H111.597V44.0732H113.573ZM113.573 46.0488V48.0244H111.597V46.0488H113.573ZM113.573 48.0244V50H111.597V48.0244H113.573ZM111.597 48.0244V50H109.621V48.0244H111.597ZM109.621 48.0244V50H107.646V48.0244H109.621ZM109.621 46.0488V48.0244H107.646V46.0488H109.621ZM111.597 44.0732V46.0488H109.621V44.0732H111.597ZM111.597 46.0488V48.0244H109.621V46.0488H111.597ZM115.548 44.0732V46.0488H113.573V44.0732H115.548ZM115.548 42.0976V44.0732H113.573V42.0976H115.548ZM117.524 42.0976V44.0732H115.548V42.0976H117.524ZM119.499 42.0976V44.0732H117.524V42.0976H119.499ZM117.524 44.0732V46.0488H115.548V44.0732H117.524ZM115.548 46.0488V48.0244H113.573V46.0488H115.548ZM101.719 42.0976V44.0732H99.7433V42.0976H101.719ZM103.695 42.0976V44.0732H101.719V42.0976H103.695ZM103.695 44.0732V46.0488H101.719V44.0732H103.695ZM105.67 44.0732V46.0488H103.695V44.0732H105.67ZM105.67 46.0488V48.0244H103.695V46.0488H105.67ZM107.646 42.0976V44.0732H105.67V42.0976H107.646ZM105.67 42.0976V44.0732H103.695V42.0976H105.67ZM117.524 34.1951V36.1707H115.548V34.1951H117.524ZM117.524 32.2195V34.1951H115.548V32.2195H117.524ZM117.524 30.2439V32.2195H115.548V30.2439H117.524ZM117.524 28.2683V30.2439H115.548V28.2683H117.524ZM119.499 28.2683V30.2439H117.524V28.2683H119.499ZM121.475 28.2683V30.2439H119.499V28.2683H121.475ZM123.451 28.2683V30.2439H121.475V28.2683H123.451ZM125.426 28.2683V30.2439H123.451V28.2683H125.426ZM125.426 30.2439V32.2195H123.451V30.2439H125.426ZM125.426 32.2195V34.1951H123.451V32.2195H125.426ZM125.426 34.1951V36.1707H123.451V34.1951H125.426ZM123.451 34.1951V36.1707H121.475V34.1951H123.451ZM121.475 34.1951V36.1707H119.499V34.1951H121.475ZM119.499 34.1951V36.1707H117.524V34.1951H119.499ZM121.475 32.2195V34.1951H119.499V32.2195H121.475ZM123.451 32.2195V34.1951H121.475V32.2195H123.451ZM123.451 30.2439V32.2195H121.475V30.2439H123.451ZM121.475 30.2439V32.2195H119.499V30.2439H121.475ZM119.499 30.2439V32.2195H117.524V30.2439H119.499ZM119.499 32.2195V34.1951H117.524V32.2195H119.499ZM117.524 26.2927V28.2683H115.548V26.2927H117.524ZM117.524 24.3171V26.2927H115.548V24.3171H117.524ZM117.524 22.3415V24.3171H115.548V22.3415H117.524ZM117.524 20.3659V22.3415H115.548V20.3659H117.524ZM117.524 18.3902V20.3659H115.548V18.3902H117.524ZM117.524 16.4146V18.3902H115.548V16.4146H117.524ZM117.524 14.439V16.4146H115.548V14.439H117.524ZM117.524 12.4634V14.439H115.548V12.4634H117.524ZM119.499 14.439V16.4146H117.524V14.439H119.499ZM119.499 12.4634V14.439H117.524V12.4634H119.499ZM121.475 12.4634V14.439H119.499V12.4634H121.475ZM123.451 12.4634V14.439H121.475V12.4634H123.451ZM123.451 14.439V16.4146H121.475V14.439H123.451ZM123.451 16.4146V18.3902H121.475V16.4146H123.451ZM125.426 16.4146V18.3902H123.451V16.4146H125.426ZM125.426 18.3902V20.3659H123.451V18.3902H125.426ZM125.426 20.3659V22.3415H123.451V20.3659H125.426ZM125.426 22.3415V24.3171H123.451V22.3415H125.426ZM125.426 24.3171V26.2927H123.451V24.3171H125.426ZM125.426 26.2927V28.2683H123.451V26.2927H125.426ZM125.426 14.439V16.4146H123.451V14.439H125.426ZM125.426 12.4634V14.439H123.451V12.4634H125.426ZM121.475 14.439V16.4146H119.499V14.439H121.475ZM121.475 16.4146V18.3902H119.499V16.4146H121.475ZM121.475 18.3902V20.3659H119.499V18.3902H121.475ZM121.475 20.3659V22.3415H119.499V20.3659H121.475ZM121.475 22.3415V24.3171H119.499V22.3415H121.475ZM121.475 24.3171V26.2927H119.499V24.3171H121.475ZM119.499 24.3171V26.2927H117.524V24.3171H119.499ZM119.499 26.2927V28.2683H117.524V26.2927H119.499ZM119.499 22.3415V24.3171H117.524V22.3415H119.499ZM119.499 20.3659V22.3415H117.524V20.3659H119.499ZM119.499 18.3902V20.3659H117.524V18.3902H119.499ZM119.499 16.4146V18.3902H117.524V16.4146H119.499ZM123.451 18.3902V20.3659H121.475V18.3902H123.451ZM123.451 20.3659V22.3415H121.475V20.3659H123.451ZM123.451 22.3415V24.3171H121.475V22.3415H123.451ZM123.451 24.3171V26.2927H121.475V24.3171H123.451ZM123.451 26.2927V28.2683H121.475V26.2927H123.451ZM121.475 26.2927V28.2683H119.499V26.2927H121.475ZM155.099 24.3171V26.2927H153.123V24.3171H155.099ZM157.075 24.3171V26.2927H155.099V24.3171H157.075ZM159.05 24.3171V26.2927H157.075V24.3171H159.05ZM161.026 24.3171V26.2927H159.05V24.3171H161.026ZM163.001 24.3171V26.2927H161.026V24.3171H163.001ZM163.001 22.3415V24.3171H161.026V22.3415H163.001ZM163.001 20.3659V22.3415H161.026V20.3659H163.001ZM161.026 20.3659V22.3415H159.05V20.3659H161.026ZM159.05 20.3659V22.3415H157.075V20.3659H159.05ZM157.075 20.3659V22.3415H155.099V20.3659H157.075ZM157.075 22.3415V24.3171H155.099V22.3415H157.075ZM155.099 22.3415V24.3171H153.123V22.3415H155.099ZM159.05 22.3415V24.3171H157.075V22.3415H159.05ZM161.026 22.3415V24.3171H159.05V22.3415H161.026ZM155.099 20.3659V22.3415H153.123V20.3659H155.099ZM153.123 20.3659V22.3415H151.148V20.3659H153.123ZM153.123 18.3902V20.3659H151.148V18.3902H153.123ZM155.099 18.3902V20.3659H153.123V18.3902H155.099ZM157.075 18.3902V20.3659H155.099V18.3902H157.075ZM159.05 18.3902V20.3659H157.075V18.3902H159.05ZM161.026 18.3902V20.3659H159.05V18.3902H161.026ZM161.026 16.4146V18.3902H159.05V16.4146H161.026ZM159.05 16.4146V18.3902H157.075V16.4146H159.05ZM157.075 16.4146V18.3902H155.099V16.4146H157.075ZM155.099 16.4146V18.3902H153.123V16.4146H155.099ZM153.123 16.4146V18.3902H151.148V16.4146H153.123ZM157.075 14.439V16.4146H155.099V14.439H157.075ZM159.05 14.439V16.4146H157.075V14.439H159.05ZM155.099 14.439V16.4146H153.123V14.439H155.099ZM155.099 12.4634V14.439H153.123V12.4634H155.099ZM153.123 12.4634V14.439H151.148V12.4634H153.123ZM153.123 14.439V16.4146H151.148V14.439H153.123ZM151.148 14.439V16.4146H149.172V14.439H151.148ZM151.148 12.4634V14.439H149.172V12.4634H151.148ZM151.148 16.4146V18.3902H149.172V16.4146H151.148ZM149.172 16.4146V18.3902H147.197V16.4146H149.172ZM149.172 18.3902V20.3659H147.197V18.3902H149.172ZM151.148 18.3902V20.3659H149.172V18.3902H151.148ZM147.197 18.3902V20.3659H145.221V18.3902H147.197ZM147.197 16.4146V18.3902H145.221V16.4146H147.197ZM147.197 14.439V16.4146H145.221V14.439H147.197ZM147.197 12.4634V14.439H145.221V12.4634H147.197ZM149.172 12.4634V14.439H147.197V12.4634H149.172ZM149.172 14.439V16.4146H147.197V14.439H149.172ZM145.221 12.4634V14.439H143.245V12.4634H145.221ZM143.245 12.4634V14.439H141.27V12.4634H143.245ZM141.27 12.4634V14.439H139.294V12.4634H141.27ZM141.27 14.439V16.4146H139.294V14.439H141.27ZM141.27 16.4146V18.3902H139.294V16.4146H141.27ZM141.27 18.3902V20.3659H139.294V18.3902H141.27ZM143.245 18.3902V20.3659H141.27V18.3902H143.245ZM145.221 18.3902V20.3659H143.245V18.3902H145.221ZM145.221 16.4146V18.3902H143.245V16.4146H145.221ZM145.221 14.439V16.4146H143.245V14.439H145.221ZM143.245 14.439V16.4146H141.27V14.439H143.245ZM143.245 16.4146V18.3902H141.27V16.4146H143.245ZM139.294 16.4146V18.3902H137.318V16.4146H139.294ZM139.294 14.439V16.4146H137.318V14.439H139.294ZM137.318 14.439V16.4146H135.343V14.439H137.318ZM137.318 16.4146V18.3902H135.343V16.4146H137.318ZM135.343 16.4146V18.3902H133.367V16.4146H135.343ZM135.343 18.3902V20.3659H133.367V18.3902H135.343ZM135.343 20.3659V22.3415H133.367V20.3659H135.343ZM137.318 20.3659V22.3415H135.343V20.3659H137.318ZM137.318 18.3902V20.3659H135.343V18.3902H137.318ZM139.294 18.3902V20.3659H137.318V18.3902H139.294ZM139.294 20.3659V22.3415H137.318V20.3659H139.294ZM141.27 20.3659V22.3415H139.294V20.3659H141.27ZM143.245 20.3659V22.3415H141.27V20.3659H143.245ZM133.367 20.3659V22.3415H131.392V20.3659H133.367ZM133.367 22.3415V24.3171H131.392V22.3415H133.367ZM133.367 24.3171V26.2927H131.392V24.3171H133.367ZM133.367 26.2927V28.2683H131.392V26.2927H133.367ZM133.367 28.2683V30.2439H131.392V28.2683H133.367ZM133.367 30.2439V32.2195H131.392V30.2439H133.367ZM133.367 32.2195V34.1951H131.392V32.2195H133.367ZM133.367 34.1951V36.1707H131.392V34.1951H133.367ZM133.367 36.1707V38.1463H131.392V36.1707H133.367ZM133.367 38.1463V40.122H131.392V38.1463H133.367ZM135.343 38.1463V40.122H133.367V38.1463H135.343ZM135.343 40.122V42.0976H133.367V40.122H135.343ZM133.367 40.122V42.0976H131.392V40.122H133.367ZM137.318 40.122V42.0976H135.343V40.122H137.318ZM139.294 40.122V42.0976H137.318V40.122H139.294ZM141.27 40.122V42.0976H139.294V40.122H141.27ZM143.245 40.122V42.0976H141.27V40.122H143.245ZM141.27 38.1463V40.122H139.294V38.1463H141.27ZM141.27 36.1707V38.1463H139.294V36.1707H141.27ZM141.27 34.1951V36.1707H139.294V34.1951H141.27ZM141.27 32.2195V34.1951H139.294V32.2195H141.27ZM141.27 30.2439V32.2195H139.294V30.2439H141.27ZM141.27 28.2683V30.2439H139.294V28.2683H141.27ZM141.27 26.2927V28.2683H139.294V26.2927H141.27ZM141.27 24.3171V26.2927H139.294V24.3171H141.27ZM141.27 22.3415V24.3171H139.294V22.3415H141.27ZM139.294 22.3415V24.3171H137.318V22.3415H139.294ZM137.318 22.3415V24.3171H135.343V22.3415H137.318ZM135.343 22.3415V24.3171H133.367V22.3415H135.343ZM135.343 24.3171V26.2927H133.367V24.3171H135.343ZM135.343 26.2927V28.2683H133.367V26.2927H135.343ZM135.343 28.2683V30.2439H133.367V28.2683H135.343ZM135.343 30.2439V32.2195H133.367V30.2439H135.343ZM135.343 32.2195V34.1951H133.367V32.2195H135.343ZM135.343 34.1951V36.1707H133.367V34.1951H135.343ZM135.343 36.1707V38.1463H133.367V36.1707H135.343ZM137.318 38.1463V40.122H135.343V38.1463H137.318ZM139.294 38.1463V40.122H137.318V38.1463H139.294ZM139.294 36.1707V38.1463H137.318V36.1707H139.294ZM139.294 34.1951V36.1707H137.318V34.1951H139.294ZM139.294 32.2195V34.1951H137.318V32.2195H139.294ZM139.294 30.2439V32.2195H137.318V30.2439H139.294ZM137.318 30.2439V32.2195H135.343V30.2439H137.318ZM137.318 28.2683V30.2439H135.343V28.2683H137.318ZM137.318 26.2927V28.2683H135.343V26.2927H137.318ZM137.318 24.3171V26.2927H135.343V24.3171H137.318ZM139.294 24.3171V26.2927H137.318V24.3171H139.294ZM139.294 26.2927V28.2683H137.318V26.2927H139.294ZM139.294 28.2683V30.2439H137.318V28.2683H139.294ZM137.318 34.1951V36.1707H135.343V34.1951H137.318ZM137.318 36.1707V38.1463H135.343V36.1707H137.318ZM137.318 32.2195V34.1951H135.343V32.2195H137.318ZM155.099 38.1463V40.122H153.123V38.1463H155.099ZM157.075 38.1463V40.122H155.099V38.1463H157.075ZM159.05 38.1463V40.122H157.075V38.1463H159.05ZM161.026 38.1463V40.122H159.05V38.1463H161.026ZM163.001 38.1463V40.122H161.026V38.1463H163.001ZM163.001 40.122V42.0976H161.026V40.122H163.001ZM161.026 40.122V42.0976H159.05V40.122H161.026ZM159.05 40.122V42.0976H157.075V40.122H159.05ZM157.075 40.122V42.0976H155.099V40.122H157.075ZM155.099 40.122V42.0976H153.123V40.122H155.099ZM153.123 40.122V42.0976H151.148V40.122H153.123ZM153.123 42.0976V44.0732H151.148V42.0976H153.123ZM155.099 42.0976V44.0732H153.123V42.0976H155.099ZM157.075 42.0976V44.0732H155.099V42.0976H157.075ZM159.05 42.0976V44.0732H157.075V42.0976H159.05ZM159.05 44.0732V46.0488H157.075V44.0732H159.05ZM161.026 44.0732V46.0488H159.05V44.0732H161.026ZM161.026 42.0976V44.0732H159.05V42.0976H161.026ZM159.05 46.0488V48.0244H157.075V46.0488H159.05ZM157.075 46.0488V48.0244H155.099V46.0488H157.075ZM157.075 44.0732V46.0488H155.099V44.0732H157.075ZM155.099 44.0732V46.0488H153.123V44.0732H155.099ZM155.099 46.0488V48.0244H153.123V46.0488H155.099ZM155.099 48.0244V50H153.123V48.0244H155.099ZM153.123 48.0244V50H151.148V48.0244H153.123ZM151.148 48.0244V50H149.172V48.0244H151.148ZM149.172 48.0244V50H147.197V48.0244H149.172ZM147.197 48.0244V50H145.221V48.0244H147.197ZM145.221 48.0244V50H143.245V48.0244H145.221ZM143.245 48.0244V50H141.27V48.0244H143.245ZM141.27 48.0244V50H139.294V48.0244H141.27ZM143.245 46.0488V48.0244H141.27V46.0488H143.245ZM145.221 46.0488V48.0244H143.245V46.0488H145.221ZM147.197 46.0488V48.0244H145.221V46.0488H147.197ZM149.172 46.0488V48.0244H147.197V46.0488H149.172ZM151.148 46.0488V48.0244H149.172V46.0488H151.148ZM153.123 46.0488V48.0244H151.148V46.0488H153.123ZM153.123 44.0732V46.0488H151.148V44.0732H153.123ZM151.148 44.0732V46.0488H149.172V44.0732H151.148ZM149.172 44.0732V46.0488H147.197V44.0732H149.172ZM147.197 44.0732V46.0488H145.221V44.0732H147.197ZM145.221 44.0732V46.0488H143.245V44.0732H145.221ZM143.245 44.0732V46.0488H141.27V44.0732H143.245ZM141.27 46.0488V48.0244H139.294V46.0488H141.27ZM139.294 46.0488V48.0244H137.318V46.0488H139.294ZM137.318 46.0488V48.0244H135.343V46.0488H137.318ZM137.318 44.0732V46.0488H135.343V44.0732H137.318ZM135.343 44.0732V46.0488H133.367V44.0732H135.343ZM135.343 42.0976V44.0732H133.367V42.0976H135.343ZM137.318 42.0976V44.0732H135.343V42.0976H137.318ZM139.294 42.0976V44.0732H137.318V42.0976H139.294ZM141.27 42.0976V44.0732H139.294V42.0976H141.27ZM143.245 42.0976V44.0732H141.27V42.0976H143.245ZM145.221 42.0976V44.0732H143.245V42.0976H145.221ZM147.197 42.0976V44.0732H145.221V42.0976H147.197ZM149.172 42.0976V44.0732H147.197V42.0976H149.172ZM151.148 42.0976V44.0732H149.172V42.0976H151.148ZM141.27 44.0732V46.0488H139.294V44.0732H141.27ZM139.294 44.0732V46.0488H137.318V44.0732H139.294ZM163.001 26.2927V28.2683H161.026V26.2927H163.001ZM161.026 26.2927V28.2683H159.05V26.2927H161.026ZM159.05 26.2927V28.2683H157.075V26.2927H159.05ZM157.075 26.2927V28.2683H155.099V26.2927H157.075ZM155.099 26.2927V28.2683H153.123V26.2927H155.099ZM163.001 28.2683V30.2439H161.026V28.2683H163.001ZM159.05 28.2683V30.2439H157.075V28.2683H159.05ZM157.075 28.2683V30.2439H155.099V28.2683H157.075ZM153.123 28.2683V30.2439H151.148V28.2683H153.123ZM151.148 28.2683V30.2439H149.172V28.2683H151.148ZM149.172 28.2683V30.2439H147.197V28.2683H149.172ZM147.197 28.2683V30.2439H145.221V28.2683H147.197ZM145.221 28.2683V30.2439H143.245V28.2683H145.221ZM143.245 28.2683V30.2439H141.27V28.2683H143.245ZM155.099 28.2683V30.2439H153.123V28.2683H155.099ZM161.026 28.2683V30.2439H159.05V28.2683H161.026ZM163.001 30.2439V32.2195H161.026V30.2439H163.001ZM161.026 30.2439V32.2195H159.05V30.2439H161.026ZM159.05 30.2439V32.2195H157.075V30.2439H159.05ZM157.075 30.2439V32.2195H155.099V30.2439H157.075ZM155.099 30.2439V32.2195H153.123V30.2439H155.099ZM153.123 30.2439V32.2195H151.148V30.2439H153.123ZM151.148 30.2439V32.2195H149.172V30.2439H151.148ZM149.172 30.2439V32.2195H147.197V30.2439H149.172ZM147.197 30.2439V32.2195H145.221V30.2439H147.197ZM145.221 30.2439V32.2195H143.245V30.2439H145.221ZM143.245 30.2439V32.2195H141.27V30.2439H143.245ZM143.245 32.2195V34.1951H141.27V32.2195H143.245ZM145.221 32.2195V34.1951H143.245V32.2195H145.221ZM147.197 32.2195V34.1951H145.221V32.2195H147.197ZM151.148 32.2195V34.1951H149.172V32.2195H151.148ZM153.123 32.2195V34.1951H151.148V32.2195H153.123ZM155.099 32.2195V34.1951H153.123V32.2195H155.099ZM157.075 32.2195V34.1951H155.099V32.2195H157.075ZM159.05 32.2195V34.1951H157.075V32.2195H159.05ZM161.026 32.2195V34.1951H159.05V32.2195H161.026ZM163.001 32.2195V34.1951H161.026V32.2195H163.001ZM149.172 32.2195V34.1951H147.197V32.2195H149.172ZM170.939 48.0244V50H168.963V48.0244H170.939ZM170.939 46.0488V48.0244H168.963V46.0488H170.939ZM170.939 44.0732V46.0488H168.963V44.0732H170.939ZM170.939 42.0976V44.0732H168.963V42.0976H170.939ZM170.939 40.122V42.0976H168.963V40.122H170.939ZM170.939 38.1463V40.122H168.963V38.1463H170.939ZM170.939 36.1707V38.1463H168.963V36.1707H170.939ZM170.939 34.1951V36.1707H168.963V34.1951H170.939ZM170.939 32.2195V34.1951H168.963V32.2195H170.939ZM170.939 30.2439V32.2195H168.963V30.2439H170.939ZM170.939 28.2683V30.2439H168.963V28.2683H170.939ZM170.939 26.2927V28.2683H168.963V26.2927H170.939ZM170.939 24.3171V26.2927H168.963V24.3171H170.939ZM170.939 22.3415V24.3171H168.963V22.3415H170.939ZM170.939 20.3659V22.3415H168.963V20.3659H170.939ZM172.914 20.3659V22.3415H170.939V20.3659H172.914ZM172.914 22.3415V24.3171H170.939V22.3415H172.914ZM172.914 24.3171V26.2927H170.939V24.3171H172.914ZM172.914 26.2927V28.2683H170.939V26.2927H172.914ZM172.914 28.2683V30.2439H170.939V28.2683H172.914ZM172.914 30.2439V32.2195H170.939V30.2439H172.914ZM172.914 32.2195V34.1951H170.939V32.2195H172.914ZM174.89 34.1951V36.1707H172.914V34.1951H174.89ZM174.89 36.1707V38.1463H172.914V36.1707H174.89ZM174.89 38.1463V40.122H172.914V38.1463H174.89ZM174.89 40.122V42.0976H172.914V40.122H174.89ZM174.89 42.0976V44.0732H172.914V42.0976H174.89ZM174.89 44.0732V46.0488H172.914V44.0732H174.89ZM174.89 46.0488V48.0244H172.914V46.0488H174.89ZM174.89 48.0244V50H172.914V48.0244H174.89ZM176.865 48.0244V50H174.89V48.0244H176.865ZM178.841 48.0244V50H176.865V48.0244H178.841ZM178.841 46.0488V48.0244H176.865V46.0488H178.841ZM178.841 44.0732V46.0488H176.865V44.0732H178.841ZM178.841 42.0976V44.0732H176.865V42.0976H178.841ZM178.841 40.122V42.0976H176.865V40.122H178.841ZM178.841 38.1463V40.122H176.865V38.1463H178.841ZM178.841 36.1707V38.1463H176.865V36.1707H178.841ZM178.841 34.1951V36.1707H176.865V34.1951H178.841ZM176.865 34.1951V36.1707H174.89V34.1951H176.865ZM176.865 32.2195V34.1951H174.89V32.2195H176.865ZM176.865 36.1707V38.1463H174.89V36.1707H176.865ZM176.865 38.1463V40.122H174.89V38.1463H176.865ZM176.865 40.122V42.0976H174.89V40.122H176.865ZM176.865 42.0976V44.0732H174.89V42.0976H176.865ZM176.865 44.0732V46.0488H174.89V44.0732H176.865ZM176.865 46.0488V48.0244H174.89V46.0488H176.865ZM172.914 48.0244V50H170.939V48.0244H172.914ZM172.914 46.0488V48.0244H170.939V46.0488H172.914ZM172.914 44.0732V46.0488H170.939V44.0732H172.914ZM172.914 42.0976V44.0732H170.939V42.0976H172.914ZM172.914 40.122V42.0976H170.939V40.122H172.914ZM172.914 38.1463V40.122H170.939V38.1463H172.914ZM172.914 36.1707V38.1463H170.939V36.1707H172.914ZM172.914 34.1951V36.1707H170.939V34.1951H172.914ZM170.939 12.4634V14.439H168.963V12.4634H170.939ZM170.939 14.439V16.4146H168.963V14.439H170.939ZM170.939 16.4146V18.3902H168.963V16.4146H170.939ZM170.939 18.3902V20.3659H168.963V18.3902H170.939ZM176.865 14.439V16.4146H174.89V14.439H176.865ZM176.865 16.4146V18.3902H174.89V16.4146H176.865ZM176.865 18.3902V20.3659H174.89V18.3902H176.865ZM176.865 20.3659V22.3415H174.89V20.3659H176.865ZM176.865 22.3415V24.3171H174.89V22.3415H176.865ZM176.865 24.3171V26.2927H174.89V24.3171H176.865ZM176.865 26.2927V28.2683H174.89V26.2927H176.865ZM178.841 28.2683V30.2439H176.865V28.2683H178.841ZM178.841 30.2439V32.2195H176.865V30.2439H178.841ZM178.841 32.2195V34.1951H176.865V32.2195H178.841ZM178.841 26.2927V28.2683H176.865V26.2927H178.841ZM178.841 24.3171V26.2927H176.865V24.3171H178.841ZM178.841 22.3415V24.3171H176.865V22.3415H178.841ZM178.841 20.3659V22.3415H176.865V20.3659H178.841ZM178.841 18.3902V20.3659H176.865V18.3902H178.841ZM178.841 16.4146V18.3902H176.865V16.4146H178.841ZM178.841 14.439V16.4146H176.865V14.439H178.841ZM178.841 12.4634V14.439H176.865V12.4634H178.841ZM176.865 12.4634V14.439H174.89V12.4634H176.865ZM174.89 12.4634V14.439H172.914V12.4634H174.89ZM174.89 14.439V16.4146H172.914V14.439H174.89ZM172.914 16.4146V18.3902H170.939V16.4146H172.914ZM172.914 18.3902V20.3659H170.939V18.3902H172.914ZM172.914 14.439V16.4146H170.939V14.439H172.914ZM172.914 12.4634V14.439H170.939V12.4634H172.914ZM174.89 16.4146V18.3902H172.914V16.4146H174.89ZM174.89 18.3902V20.3659H172.914V18.3902H174.89ZM174.89 20.3659V22.3415H172.914V20.3659H174.89ZM174.89 22.3415V24.3171H172.914V22.3415H174.89ZM174.89 24.3171V26.2927H172.914V24.3171H174.89ZM174.89 26.2927V28.2683H172.914V26.2927H174.89ZM174.89 28.2683V30.2439H172.914V28.2683H174.89ZM174.89 30.2439V32.2195H172.914V30.2439H174.89ZM174.89 32.2195V34.1951H172.914V32.2195H174.89ZM176.865 30.2439V32.2195H174.89V30.2439H176.865ZM176.865 28.2683V30.2439H174.89V28.2683H176.865ZM192.67 48.0244V50H190.695V48.0244H192.67ZM194.646 48.0244V50H192.67V48.0244H194.646ZM196.621 48.0244V50H194.646V48.0244H196.621ZM198.597 48.0244V50H196.621V48.0244H198.597ZM200.573 46.0488V48.0244H198.597V46.0488H200.573ZM200.573 44.0732V46.0488H198.597V44.0732H200.573ZM200.573 48.0244V50H198.597V48.0244H200.573ZM198.597 46.0488V48.0244H196.621V46.0488H198.597ZM196.621 46.0488V48.0244H194.646V46.0488H196.621ZM194.646 46.0488V48.0244H192.67V46.0488H194.646ZM192.67 46.0488V48.0244H190.695V46.0488H192.67ZM192.67 44.0732V46.0488H190.695V44.0732H192.67ZM192.67 42.0976V44.0732H190.695V42.0976H192.67ZM194.646 42.0976V44.0732H192.67V42.0976H194.646ZM196.621 42.0976V44.0732H194.646V42.0976H196.621ZM198.597 42.0976V44.0732H196.621V42.0976H198.597ZM200.573 42.0976V44.0732H198.597V42.0976H200.573ZM198.597 44.0732V46.0488H196.621V44.0732H198.597ZM196.621 44.0732V46.0488H194.646V44.0732H196.621ZM194.646 44.0732V46.0488H192.67V44.0732H194.646ZM200.573 20.3659V22.3415H198.597V20.3659H200.573ZM198.597 20.3659V22.3415H196.621V20.3659H198.597ZM194.646 20.3659V22.3415H192.67V20.3659H194.646ZM194.646 22.3415V24.3171H192.67V22.3415H194.646ZM194.646 24.3171V26.2927H192.67V24.3171H194.646ZM192.67 26.2927V28.2683H190.695V26.2927H192.67ZM192.67 28.2683V30.2439H190.695V28.2683H192.67ZM192.67 30.2439V32.2195H190.695V30.2439H192.67ZM192.67 32.2195V34.1951H190.695V32.2195H192.67ZM192.67 34.1951V36.1707H190.695V34.1951H192.67ZM192.67 36.1707V38.1463H190.695V36.1707H192.67ZM192.67 38.1463V40.122H190.695V38.1463H192.67ZM192.67 40.122V42.0976H190.695V40.122H192.67ZM194.646 40.122V42.0976H192.67V40.122H194.646ZM196.621 40.122V42.0976H194.646V40.122H196.621ZM198.597 40.122V42.0976H196.621V40.122H198.597ZM200.573 40.122V42.0976H198.597V40.122H200.573ZM200.573 38.1463V40.122H198.597V38.1463H200.573ZM200.573 34.1951V36.1707H198.597V34.1951H200.573ZM200.573 32.2195V34.1951H198.597V32.2195H200.573ZM200.573 30.2439V32.2195H198.597V30.2439H200.573ZM200.573 28.2683V30.2439H198.597V28.2683H200.573ZM200.573 26.2927V28.2683H198.597V26.2927H200.573ZM200.573 24.3171V26.2927H198.597V24.3171H200.573ZM200.573 22.3415V24.3171H198.597V22.3415H200.573ZM198.597 30.2439V32.2195H196.621V30.2439H198.597ZM198.597 34.1951V36.1707H196.621V34.1951H198.597ZM198.597 36.1707V38.1463H196.621V36.1707H198.597ZM198.597 38.1463V40.122H196.621V38.1463H198.597ZM200.573 36.1707V38.1463H198.597V36.1707H200.573ZM198.597 26.2927V28.2683H196.621V26.2927H198.597ZM196.621 26.2927V28.2683H194.646V26.2927H196.621ZM194.646 26.2927V28.2683H192.67V26.2927H194.646ZM194.646 28.2683V30.2439H192.67V28.2683H194.646ZM194.646 30.2439V32.2195H192.67V30.2439H194.646ZM194.646 32.2195V34.1951H192.67V32.2195H194.646ZM194.646 34.1951V36.1707H192.67V34.1951H194.646ZM194.646 36.1707V38.1463H192.67V36.1707H194.646ZM194.646 38.1463V40.122H192.67V38.1463H194.646ZM196.621 38.1463V40.122H194.646V38.1463H196.621ZM196.621 36.1707V38.1463H194.646V36.1707H196.621ZM196.621 34.1951V36.1707H194.646V34.1951H196.621ZM196.621 32.2195V34.1951H194.646V32.2195H196.621ZM196.621 30.2439V32.2195H194.646V30.2439H196.621ZM196.621 28.2683V30.2439H194.646V28.2683H196.621ZM198.597 28.2683V30.2439H196.621V28.2683H198.597ZM198.597 32.2195V34.1951H196.621V32.2195H198.597ZM198.597 24.3171V26.2927H196.621V24.3171H198.597ZM198.597 22.3415V24.3171H196.621V22.3415H198.597ZM196.621 22.3415V24.3171H194.646V22.3415H196.621ZM196.621 24.3171V26.2927H194.646V24.3171H196.621ZM192.67 24.3171V26.2927H190.695V24.3171H192.67ZM192.67 22.3415V24.3171H190.695V22.3415H192.67ZM192.67 20.3659V22.3415H190.695V20.3659H192.67ZM196.621 20.3659V22.3415H194.646V20.3659H196.621ZM192.67 12.4634V14.439H190.695V12.4634H192.67ZM192.67 14.439V16.4146H190.695V14.439H192.67ZM194.646 14.439V16.4146H192.67V14.439H194.646ZM196.621 14.439V16.4146H194.646V14.439H196.621ZM196.621 16.4146V18.3902H194.646V16.4146H196.621ZM198.597 16.4146V18.3902H196.621V16.4146H198.597ZM198.597 18.3902V20.3659H196.621V18.3902H198.597ZM196.621 18.3902V20.3659H194.646V18.3902H196.621ZM194.646 18.3902V20.3659H192.67V18.3902H194.646ZM194.646 16.4146V18.3902H192.67V16.4146H194.646ZM192.67 16.4146V18.3902H190.695V16.4146H192.67ZM190.695 16.4146V18.3902H188.719V16.4146H190.695ZM190.695 18.3902V20.3659H188.719V18.3902H190.695ZM192.67 18.3902V20.3659H190.695V18.3902H192.67ZM190.695 20.3659V22.3415H188.719V20.3659H190.695ZM188.719 18.3902V20.3659H186.743V18.3902H188.719ZM188.719 16.4146V18.3902H186.743V16.4146H188.719ZM188.719 14.439V16.4146H186.743V14.439H188.719ZM188.719 12.4634V14.439H186.743V12.4634H188.719ZM190.695 12.4634V14.439H188.719V12.4634H190.695ZM190.695 14.439V16.4146H188.719V14.439H190.695ZM186.743 12.4634V14.439H184.768V12.4634H186.743ZM186.743 14.439V16.4146H184.768V14.439H186.743ZM186.743 16.4146V18.3902H184.768V16.4146H186.743ZM186.743 18.3902V20.3659H184.768V18.3902H186.743ZM184.768 12.4634V14.439H182.792V12.4634H184.768ZM184.768 14.439V16.4146H182.792V14.439H184.768ZM182.792 14.439V16.4146H180.817V14.439H182.792ZM182.792 16.4146V18.3902H180.817V16.4146H182.792ZM180.817 16.4146V18.3902H178.841V16.4146H180.817ZM180.817 18.3902V20.3659H178.841V18.3902H180.817ZM182.792 18.3902V20.3659H180.817V18.3902H182.792ZM184.768 18.3902V20.3659H182.792V18.3902H184.768ZM184.768 16.4146V18.3902H182.792V16.4146H184.768ZM180.817 20.3659V22.3415H178.841V20.3659H180.817ZM182.792 12.4634V14.439H180.817V12.4634H182.792ZM180.817 14.439V16.4146H178.841V14.439H180.817Z" fill="white"/>
</svg>
